<?xml version="1.0" standalone="no"?>
<!DOCTYPE svg PUBLIC "-//W3C//DTD SVG 20010904//EN"
 "http://www.w3.org/TR/2001/REC-SVG-20010904/DTD/svg10.dtd">
<svg version="1.0" xmlns="http://www.w3.org/2000/svg"
 width="192.000000pt" height="192.000000pt" viewBox="0 0 192.000000 192.000000"
 preserveAspectRatio="xMidYMid meet">
<metadata>
Created by potrace 1.14, written by Peter Selinger 2001-2017
</metadata>
<g transform="translate(0.000000,192.000000) scale(0.100000,-0.100000)"
fill="#000000" stroke="none">
<path d="M538 1680 c-31 -3 -58 -7 -60 -10 -3 -3 -35 -93 -73 -200 -74 -214
-89 -248 -111 -257 -7 -3 -14 -16 -14 -29 0 -24 1 -24 105 -24 l105 0 0 25 c0
21 -5 25 -29 25 -37 0 -45 12 -37 55 10 53 29 65 102 65 61 0 65 -2 75 -27 5
-15 9 -41 7 -57 -2 -25 -8 -32 -30 -34 -24 -3 -28 -8 -28 -34 0 -23 4 -29 16
-24 9 3 63 6 120 6 102 0 104 0 104 23 0 16 -9 28 -25 35 -31 14 -34 22 -100
261 -30 107 -58 197 -62 200 -4 4 -34 4 -65 1z m16 -190 c10 -36 20 -73 22
-82 5 -16 -2 -18 -55 -18 l-60 0 31 91 c17 50 34 87 38 82 4 -4 15 -37 24 -73z"/>
<path d="M826 1664 c-10 -26 -7 -31 24 -38 l30 -6 -2 -197 -3 -198 -27 -13
c-20 -9 -28 -21 -28 -39 0 -19 4 -24 16 -19 9 3 60 6 115 6 99 0 99 0 99 25 0
20 -5 25 -24 25 -14 0 -28 5 -31 10 -10 17 -5 348 5 376 6 14 19 28 30 31 13
3 20 14 20 29 0 24 -1 24 -109 24 -90 0 -110 -3 -115 -16z"/>
<path d="M1120 1651 c0 -20 4 -29 13 -26 6 3 19 1 27 -5 12 -7 16 -40 18 -168
4 -172 -3 -219 -33 -236 -24 -13 -35 -27 -35 -43 0 -10 29 -13 110 -13 61 0
110 4 110 9 0 5 3 16 6 25 4 11 0 16 -13 16 -32 0 -43 21 -43 87 l0 63 30 0
c27 0 33 -7 74 -87 58 -116 68 -125 142 -121 56 3 59 4 62 31 3 21 -1 27 -16
27 -24 0 -55 33 -103 112 l-39 63 35 29 c46 37 67 78 67 133 0 52 -20 86 -65
110 -26 14 -63 18 -189 21 l-158 4 0 -31z m270 -60 c37 -27 40 -97 6 -134 -20
-22 -34 -27 -72 -27 l-47 0 7 86 c3 48 9 91 12 96 8 13 64 0 94 -21z"/>
<path d="M170 681 c0 -26 4 -31 25 -31 l25 0 0 -195 0 -194 -30 -16 c-20 -10
-30 -23 -30 -38 0 -22 2 -22 148 -22 145 0 150 1 208 30 95 49 144 137 144
260 -1 100 -43 169 -129 209 -39 18 -69 21 -203 24 l-158 4 0 -31z m286 -61
c60 -30 79 -72 79 -180 0 -98 -17 -139 -68 -170 -36 -22 -107 -26 -125 -8 -13
13 -17 312 -6 356 8 29 61 30 120 2z"/>
<path d="M730 686 c0 -17 7 -26 25 -30 l25 -6 -2 -198 -3 -197 -27 -13 c-18
-8 -28 -21 -28 -35 0 -21 3 -22 102 -19 121 4 128 5 128 31 0 14 -8 21 -27 23
-28 3 -28 4 -31 84 -3 96 -6 94 121 94 l77 0 0 -74 c0 -76 -13 -106 -46 -106
-8 0 -14 -10 -14 -25 l0 -26 113 3 c108 3 112 4 115 26 3 18 -1 22 -23 22 -18
0 -28 7 -35 26 -15 38 -1 362 16 377 7 7 20 18 29 25 8 7 15 19 15 27 0 12
-20 15 -110 15 -60 0 -110 -4 -110 -9 0 -5 -2 -16 -6 -24 -3 -10 4 -16 25 -20
l31 -6 0 -80 0 -79 -55 -7 c-30 -3 -75 -3 -101 1 l-46 7 4 69 c3 56 8 74 25
87 11 10 24 27 27 39 7 22 6 22 -103 22 -110 0 -111 0 -111 -24z"/>
<path d="M1330 679 c0 -16 4 -28 9 -25 5 4 16 3 25 0 14 -5 16 -32 16 -200 l0
-194 -25 -12 c-21 -10 -46 -54 -34 -61 2 -1 57 -1 122 1 117 3 117 3 117 28 0
17 -6 24 -19 24 -44 0 -51 10 -51 70 l0 57 60 6 c73 8 107 24 148 71 81 93 53
218 -57 255 -19 6 -96 11 -172 11 l-139 0 0 -31z m275 -64 c34 -33 35 -112 3
-149 -24 -26 -33 -29 -85 -27 l-33 1 0 78 c0 113 4 122 52 122 28 0 46 -7 63
-25z"/>
</g>
</svg>
